<?xml version="1.0" encoding="UTF-8"?>
<svg xmlns="http://www.w3.org/2000/svg" width="413" height="84" viewBox="0 0 413 84" fill="none">
  <g clip-path="url(#clip0_12792_1517)">
    <path d="M112.99 64.58V11.67H135.04C145.03 11.67 152.36 16.33 152.36 27.43C152.36 38.53 145.03 43.12 135.04 43.12H121.13V64.58H112.99ZM134.67 36.09C140.81 36.09 143.92 33.35 143.92 27.43C143.92 21.51 140.81 18.7 134.67 18.7H121.13V36.09H134.67Z" fill="#002C42"></path>
    <path d="M178.48 26.17V33.13C177.59 32.98 176.93 32.91 176.04 32.91C169.45 32.91 164.72 37.87 164.72 45.05V64.59H157.47V26.84H164.72V34.02H164.87C166.87 29.28 169.9 25.95 175.01 25.95C176.34 25.95 177.38 26.02 178.49 26.17H178.48Z" fill="#002C42"></path>
    <path d="M179.66 45.71C179.66 33.94 186.76 25.65 198.61 25.65C210.46 25.65 217.41 33.86 217.41 45.63C217.41 57.4 210.31 65.69 198.54 65.69C186.77 65.69 179.67 57.55 179.67 45.71H179.66ZM209.85 45.71C209.85 37.79 206.3 31.72 198.6 31.72C190.9 31.72 187.2 37.79 187.2 45.71C187.2 53.63 190.75 59.7 198.6 59.7C206.45 59.7 209.85 53.56 209.85 45.71Z" fill="#002C42"></path>
    <path d="M232.57 22.1V26.84H239.6V32.84H232.57V64.59H225.24V32.84H220.06V26.84H225.24V22.25C225.24 13.52 228.87 11.15 235.01 11.15C236.42 11.15 237.53 11.3 239.6 11.59V17.44C238.12 17.29 237.53 17.22 236.49 17.22C233.46 17.22 232.57 18.11 232.57 22.1Z" fill="#002C42"></path>
    <path d="M243.74 20.1V12.26H251.95V20.1H243.74ZM244.19 64.58V26.84H251.44V64.58H244.19Z" fill="#002C42"></path>
    <path d="M286.37 11.67H293.62V64.58H286.37V60.14H286.22C284.15 62.8 280.52 65.62 274.6 65.62C264.98 65.62 257.65 58.15 257.65 45.71C257.65 33.27 264.98 25.73 274.6 25.73C280.52 25.73 284.15 28.47 286.22 31.43H286.37V11.67ZM286.3 45.71C286.3 37.13 282.3 31.8 275.79 31.8C268.69 31.8 265.21 38.31 265.21 45.71C265.21 53.11 268.69 59.62 275.79 59.62C282.3 59.62 286.3 54.22 286.3 45.71Z" fill="#002C42"></path>
    <path d="M336.32 47.63H307.31C307.46 53.92 311.16 59.77 318.63 59.77C325.29 59.77 327.88 55.48 328.55 52.96H335.95C333.95 60.21 328.4 65.69 318.49 65.69C306.5 65.69 299.84 57.18 299.84 45.63C299.84 34.08 306.94 25.65 318.49 25.65C330.04 25.65 336.4 33.2 336.4 44.89C336.4 45.93 336.4 47.04 336.33 47.63H336.32ZM328.85 41.94C328.85 36.02 324.71 31.58 318.27 31.58C312.2 31.58 307.76 35.72 307.32 41.94H328.86H328.85Z" fill="#002C42"></path>
    <path d="M340.02 52H347.35C347.65 56.37 350.31 59.77 357.34 59.77C363.71 59.77 365.41 56.96 365.41 54.22C365.41 49.48 360.38 48.97 355.49 47.93C348.9 46.38 341.36 44.45 341.36 36.61C341.36 30.1 346.61 25.73 355.72 25.73C366.08 25.73 371.04 31.28 371.56 37.79H364.23C363.71 34.9 362.16 31.57 355.87 31.57C350.99 31.57 348.91 33.49 348.91 36.31C348.91 40.23 353.13 40.6 358.46 41.79C365.42 43.42 372.96 45.42 372.96 53.85C372.96 61.18 367.34 65.62 357.42 65.62C345.95 65.62 340.25 59.7 340.03 52H340.02Z" fill="#002C42"></path>
    <path d="M403.73 64.58L391.37 45.26L385.89 50.51V64.57H378.64V11.67H385.89V42.83L402.39 26.84H410.75L396.25 40.68L412.31 64.58H403.73Z" fill="#002C42"></path>
    <path d="M87.21 21.63H70.65C69.29 21.63 68.18 22.74 68.18 24.1V40.65C68.18 42.01 67.07 43.12 65.71 43.12H46.7V0H23.29C10.42 0 0 10.42 0 23.28V83.92H1.49C3.38 72.96 12.91 64.62 24.41 64.62H25.03H46.69H65.72C67.08 64.62 68.19 63.51 68.19 62.15V45.6C68.19 44.24 69.3 43.13 70.66 43.13H87.21C88.57 43.13 89.68 42.02 89.68 40.66V24.1C89.68 22.74 88.57 21.63 87.21 21.63Z" fill="url(#paint0_linear_12792_1517)"></path>
  </g>
  <defs>
    <linearGradient id="paint0_linear_12792_1517" x1="0" y1="41.96" x2="89.68" y2="41.96" gradientUnits="userSpaceOnUse">
      <stop stop-color="#5E8AF0"></stop>
      <stop offset="1" stop-color="#9A6BFF"></stop>
    </linearGradient>
    <clipPath id="clip0_12792_1517">
      <rect width="412.32" height="83.92" fill="white"></rect>
    </clipPath>
  </defs>
</svg>
