<?xml version="1.0" encoding="UTF-8"?>
<svg xmlns="http://www.w3.org/2000/svg" width="24" height="24" viewBox="0 0 24 24" fill="none">
  <path d="M5.25 3C5.25 3.39782 5.40804 3.77936 5.68934 4.06066C5.97064 4.34196 6.35218 4.5 6.75 4.5H18.75V1.5H6.75C6.35218 1.5 5.97064 1.65804 5.68934 1.93934C5.40804 2.22064 5.25 2.60218 5.25 3Z" fill="#FAFAFB"></path>
  <path d="M6.75 6C5.95435 6 5.19129 5.68393 4.62868 5.12132C4.06607 4.55871 3.75 3.79565 3.75 3V19.5C3.75 20.2956 4.06607 21.0587 4.62868 21.6213C5.19129 22.1839 5.95435 22.5 6.75 22.5H20.25V6H6.75ZM14.775 18.1125L12 16.05L9.225 18.075L10.3125 14.8125L7.5 12.75H10.95L12 9.525L13.05 12.75H16.5L13.725 14.8125L14.775 18.1125Z" fill="#FAFAFB"></path>
</svg>
