<svg width="14" height="14" viewBox="0 0 14 14" fill="none" xmlns="http://www.w3.org/2000/svg">
<path fill-rule="evenodd" clip-rule="evenodd" d="M4.37483 3.5C4.37483 2.05025 5.55008 0.875 6.99983 0.875C8.44957 0.875 9.62483 2.05025 9.62483 3.5C9.62483 4.94975 8.44957 6.125 6.99983 6.125C5.55008 6.125 4.37483 4.94975 4.37483 3.5Z" fill="#FAFAFB"/>
<path fill-rule="evenodd" clip-rule="evenodd" d="M2.18805 11.7281C2.23317 9.10908 4.37015 7 6.99983 7C9.62957 7 11.7666 9.10918 11.8116 11.7283C11.8146 11.902 11.7145 12.061 11.5566 12.1335C10.1689 12.7702 8.6253 13.125 7.00001 13.125C5.37458 13.125 3.83083 12.7701 2.44301 12.1333C2.28512 12.0608 2.18506 11.9018 2.18805 11.7281Z" fill="#FAFAFB"/>
</svg>
