<?xml version="1.0" encoding="UTF-8"?>
<svg xmlns="http://www.w3.org/2000/svg" width="14" height="14" viewBox="0 0 14 14" fill="none">
  <path fill-rule="evenodd" clip-rule="evenodd" d="M10.8998 11.14C12.0004 10.1028 12.6875 8.63165 12.6875 7C12.6875 3.85888 10.1411 1.3125 7 1.3125C3.85888 1.3125 1.3125 3.85888 1.3125 7C1.3125 8.63165 1.99958 10.1028 3.1002 11.14C4.1184 12.0995 5.49053 12.6875 7 12.6875C8.50947 12.6875 9.8816 12.0995 10.8998 11.14ZM3.58465 10.3905C4.38644 9.39038 5.61844 8.75 7 8.75C8.38156 8.75 9.61356 9.39038 10.4153 10.3905C9.54349 11.2687 8.33525 11.8125 7 11.8125C5.66475 11.8125 4.45651 11.2687 3.58465 10.3905ZM9.1875 5.25C9.1875 6.45812 8.20812 7.4375 7 7.4375C5.79188 7.4375 4.8125 6.45812 4.8125 5.25C4.8125 4.04188 5.79188 3.0625 7 3.0625C8.20812 3.0625 9.1875 4.04188 9.1875 5.25Z" fill="#FAFAFB"></path>
</svg>
